HIERARCHY
ROOT Hips
{
     OFFSET 1.88212 96.90440 -13.34250
     CHANNELS 6 Xposition Yposition Zposition Zrotation Xrotation Yrotation
     JOINT Spine
     {
          OFFSET 0.00000 11.89050 0.00000
          CHANNELS 3 Zrotation Xrotation Yrotation
          JOINT Spine1
          {
               OFFSET -0.00000 25.65740 0.12766
               CHANNELS 3 Zrotation Xrotation Yrotation
               JOINT HEad
               {
                    OFFSET 0.00000 8.73416 0.01134
                    CHANNELS 3 Zrotation Xrotation Yrotation
                    End Site
                    {
                         OFFSET -0.29000 12.77420 2.51395
                    }
               }
               JOINT LeftShoulder1
               {
                    OFFSET 8.99000 -0.36225 -0.22000
                    CHANNELS 3 Zrotation Xrotation Yrotation
                    JOINT LeftArm
                    {
                         OFFSET 10.28270 -0.00338 0.32212
                         CHANNELS 3 Zrotation Xrotation Yrotation
                         JOINT LeftForeArm
                         {
                              OFFSET 32.76690 0.09914 -1.42434
                              CHANNELS 3 Zrotation Xrotation Yrotation
                              JOINT LeftHand
                              {
                                   OFFSET 27.56430 0.08536 1.02216
                                   CHANNELS 3 Zrotation Xrotation Yrotation
                                   End Site
                                   {
                                        OFFSET 16.74430 -0.60000 1.50291
                                   }
                              }
                         }
                    }
               }
               JOINT RightShoulder
               {
                    OFFSET -8.99000 -0.36225 -0.22000
                    CHANNELS 3 Zrotation Xrotation Yrotation
                    JOINT RightArm
                    {
                         OFFSET -10.28270 -0.00338 0.32212
                         CHANNELS 3 Zrotation Xrotation Yrotation
                         JOINT RightForeArm
                         {
                              OFFSET -32.89710 0.09914 -1.42434
                              CHANNELS 3 Zrotation Xrotation Yrotation
                              JOINT RightHand
                              {
                                   OFFSET -27.49210 0.08536 1.02216
                                   CHANNELS 3 Zrotation Xrotation Yrotation
                                   End Site
                                   {
                                        OFFSET -16.63120 -0.60000 1.50291
                                   }
                              }
                         }
                    }
               }
          }
     }
     JOINT LeftUpLeg
     {
          OFFSET 8.94580 -8.66707 0.10165
          CHANNELS 3 Zrotation Xrotation Yrotation
          JOINT LeftLeg
          {
               OFFSET 0.00000 -44.42270 1.37270
               CHANNELS 3 Zrotation Xrotation Yrotation
               JOINT LeftFoot
               {
                    OFFSET -0.25355 -42.09240 -1.46059
                    CHANNELS 3 Zrotation Xrotation Yrotation
                    JOINT LeftToes
                    {
                         OFFSET -0.04000 -4.41509 8.49910
                         CHANNELS 3 Zrotation Xrotation Yrotation
                         End Site
                         {
                              OFFSET 0.08000 -0.04745 9.77979
                         }
                    }
               }
          }
     }
     JOINT RightUpLeg
     {
          OFFSET -8.94580 -8.66707 0.10165
          CHANNELS 3 Zrotation Xrotation Yrotation
          JOINT RightLeg
          {
               OFFSET 0.00000 -44.42270 1.37270
               CHANNELS 3 Zrotation Xrotation Yrotation
               JOINT RightFoot
               {
                    OFFSET 0.25355 -42.09240 -1.46059
                    CHANNELS 3 Zrotation Xrotation Yrotation
                    JOINT RightToes
                    {
                         OFFSET 0.04000 -4.41509 8.49910
                         CHANNELS 3 Zrotation Xrotation Yrotation
                         End Site
                         {
                              OFFSET -0.08000 -0.13745 9.77979
                         }
                    }
               }
          }
     }
}
MOTION
Frames: 17
Frame Time: 0.01667
61.18396 91.13373 -32.79892 9.17916 5.04191 142.20203 -9.17943 19.10245 3.63288 -0.01719 0.01419 0.05303 -20.55051 19.81227 24.19797 -3.37118 10.40959 11.12009 -148.28929 -63.86065 -123.67200 -21.26473 62.65155 -94.16678 13.98825 -0.58013 -9.08974 16.32285 15.21614 8.79588 70.90316 9.34620 75.46112 5.93713 20.82837 87.35454 16.54200 15.00563 14.01602 24.54132 -10.24456 -0.34607 -21.02451 16.76341 46.19254 2.14880 -0.02327 0.00316 1.01164 -2.25856 -41.13137 -21.60214 8.76295 17.84050 35.36830 4.42060 -37.91602 -30.08659 0.02017 -0.02450 14.62182 -24.65698 16.93187 
60.11586 91.62251 -33.31235 9.12904 5.15655 141.51523 -8.03382 19.11079 0.49725 -0.01709 0.01463 0.04923 -26.08659 21.57766 27.71010 -5.47150 9.92893 14.54639 -149.37305 -65.02271 -124.74300 -22.14932 62.66881 -94.29668 14.12823 0.45552 -8.40465 13.88270 15.75465 12.51538 70.14220 9.17460 75.84490 5.04862 19.39887 87.34437 16.47918 14.63411 14.04418 23.19020 -8.15657 -6.75977 -20.68409 11.57680 50.30891 1.40453 -0.01338 0.00146 2.63727 -1.77225 -39.31110 -22.94327 11.04663 17.32348 34.56304 0.78390 -35.95416 -28.44424 0.02622 -0.02883 12.91534 -23.24959 17.87057 
59.09764 91.98615 -33.97823 9.04574 5.40050 141.18521 -7.09757 18.90568 -1.84514 -0.01738 0.01760 0.04157 -30.81458 23.28227 30.34051 -7.12980 9.80084 16.79833 -150.28703 -65.95600 -125.66492 -22.98609 62.70516 -94.18312 14.25696 0.93693 -8.51616 11.99432 16.26503 14.98298 70.08289 8.58847 75.89524 4.43849 18.82609 87.53855 16.49421 14.33223 13.85118 22.02236 -6.39375 -12.69933 -20.65206 7.61362 56.59722 0.55930 -0.00254 -0.01911 4.30311 -2.53109 -40.16257 -24.21373 13.10449 16.73000 33.97731 -2.23901 -34.28978 -26.49634 0.02487 -0.02992 10.97681 -21.98129 18.61530 
58.13476 92.24007 -34.74966 8.94503 5.75617 141.15369 -6.71352 19.37987 -2.27014 -0.04343 0.08097 0.11474 -33.63594 24.99538 30.62961 -7.78264 9.33892 16.75419 -150.85519 -66.66827 -126.24084 -23.58468 62.71040 -93.99420 14.41236 1.89509 -8.10279 11.32596 15.75299 15.20082 70.45011 7.90258 75.72998 3.94716 18.85664 87.99310 16.41190 14.03237 13.78780 21.02756 -5.00448 -18.13994 -21.08803 4.54171 64.41872 -0.37917 0.01709 -0.02323 5.95183 -4.32204 -43.13323 -25.36915 14.89062 16.08514 33.49295 -4.64380 -32.92721 -24.26376 0.02192 -0.03086 8.87626 -20.84444 19.16575 
57.22062 92.41620 -35.56034 8.84154 6.21007 141.35597 -6.86518 20.43818 -1.04301 -0.04509 0.07658 0.09865 -34.68313 26.94085 29.14009 -7.61028 8.76688 14.98190 -150.97685 -67.17701 -126.36321 -23.88419 62.66248 -93.84427 14.53940 2.45131 -8.15176 11.65742 14.60552 13.64465 71.07712 7.24472 75.40394 3.47306 19.30472 88.74263 16.37551 13.73354 13.55494 20.19598 -3.59355 -21.95049 -21.11522 1.52563 70.11340 -1.09630 0.01828 -0.00281 7.61136 -5.79149 -45.91396 -26.39020 16.39500 15.42344 33.03344 -6.43175 -31.85546 -21.76843 0.01757 -0.03060 6.64416 -19.82311 19.59714 
56.34512 92.54368 -36.35665 8.74271 6.73228 141.73615 -7.06811 21.14423 0.38023 -0.01029 0.00848 -0.00032 -35.19226 29.15085 27.64687 -7.36501 8.76956 12.98319 -150.64211 -67.50600 -126.03809 -23.89484 62.55932 -93.77071 14.67784 3.23444 -7.86936 12.09536 13.93565 11.66896 71.89061 6.56755 74.97605 2.99275 20.00574 89.72501 16.29253 13.44432 13.35354 19.45997 -2.29948 -24.27203 -21.02991 -1.05689 73.96947 -1.73110 0.01334 -0.00055 9.27530 -7.16163 -48.44304 -27.26743 17.61124 14.76773 32.56040 -7.62152 -31.04672 -19.04168 0.01211 -0.02864 4.31885 -18.92641 19.90169 
55.47516 92.64382 -37.08524 8.64257 7.27537 142.23317 -7.33695 21.82883 1.62938 -0.00662 0.00486 -0.00830 -33.64317 30.19689 25.74679 -6.96592 8.79530 11.00775 -149.87817 -67.67890 -125.28626 -23.70562 62.39928 -93.77731 14.79290 3.75374 -7.85206 12.64053 13.28780 9.68393 72.80247 5.88854 74.51868 2.49322 20.83102 90.86898 16.24812 13.18617 13.01823 18.76101 -1.19124 -25.20856 -21.02463 -3.03323 76.18669 -2.38828 0.01149 -0.00055 10.94255 -8.53423 -50.71883 -28.07049 17.53564 14.64509 32.28570 -7.52379 -31.37168 -16.07321 0.00387 -0.02136 1.91545 -18.33851 20.02587 
54.57806 92.72845 -37.70838 8.53142 7.79460 142.79921 -7.64912 22.46968 2.72446 -0.00531 0.00480 -0.01007 -30.51695 30.00752 23.63596 -6.46432 8.85344 9.16562 -148.84735 -67.72473 -124.27027 -23.40697 62.19476 -93.83493 14.90593 4.38759 -7.63107 13.21724 12.70936 7.83375 73.75813 5.19782 74.08962 1.97187 21.68478 92.10303 16.20423 12.96810 12.70035 18.05716 -0.31131 -24.85465 -21.18512 -4.32993 76.92959 -3.13428 0.01152 -0.00099 12.62568 -9.90351 -52.73522 -28.81014 16.40178 14.98250 32.25045 -6.17140 -32.56309 -12.87491 -0.00532 -0.00716 -0.54914 -18.22259 19.92430 
53.66967 92.81591 -38.25693 8.41592 8.27729 143.43541 -7.96597 23.07734 3.64051 -0.00415 0.00512 -0.01087 -27.51633 29.58255 21.68200 -5.88842 8.91696 7.47014 -147.72597 -67.66243 -123.17070 -23.06981 61.97563 -93.92136 14.99849 4.86238 -7.56498 13.79855 12.18713 6.16907 74.71648 4.49018 73.73056 1.42841 22.50348 93.36344 16.20611 12.78030 12.31818 17.32203 0.37449 -23.34773 -21.51000 -4.92464 76.33363 -4.02988 0.01237 -0.00167 14.32898 -11.24486 -54.49625 -29.34965 15.17003 15.21334 33.86012 -3.38076 -32.53563 -22.63761 0.24249 -0.05020 8.68547 -19.93289 18.25169 
52.78584 92.91107 -38.76221 8.29800 8.71495 144.13213 -8.26077 23.65129 4.37070 -0.00305 0.00551 -0.01118 -24.69808 28.95651 19.91835 -5.26800 8.97148 5.93450 -146.65248 -67.49969 -122.13083 -22.73515 61.77614 -94.01833 15.09808 5.40771 -7.37784 14.35901 11.71592 4.70891 75.65741 3.77546 73.46839 0.86431 23.25095 94.60600 16.22693 12.61344 11.97407 16.55506 0.90761 -20.79996 -21.95223 -4.80105 74.52747 -5.12851 0.01348 -0.00254 16.04699 -12.52751 -56.01586 -29.75155 13.84269 15.35606 35.11440 -0.87051 -32.79094 -32.23562 0.17111 -0.04300 17.87554 -20.80775 16.87055 
51.96080 93.02352 -39.24493 8.19160 9.10591 144.88448 -8.50447 24.19627 4.91044 -0.00207 0.00582 -0.01117 -22.10159 28.17692 18.36787 -4.63229 9.01415 4.57961 -145.69844 -67.23904 -121.22857 -22.41555 61.62003 -94.13058 15.20523 5.86041 -7.28205 14.87830 11.29832 3.44754 76.57477 3.07710 73.31632 0.28297 23.91311 95.80618 16.27948 12.45064 11.61426 15.86183 1.29613 -18.42366 -22.44702 -4.37686 72.65849 -6.45818 0.01428 -0.00354 17.77227 -13.72559 -57.31267 -30.06257 12.29561 15.42814 37.57393 2.81509 -33.34703 -22.59317 -0.09875 0.20853 7.13754 -22.91720 14.85289 
51.21972 93.16091 -39.70760 8.11067 9.44902 145.67619 -8.68011 24.71104 5.27544 -0.00132 0.00600 -0.01091 -19.74666 27.29681 17.03935 -4.00767 9.04705 3.42427 -144.87292 -66.88216 -120.48293 -22.10379 61.51570 -94.27042 15.33681 6.34098 -7.10614 15.34979 10.93818 2.36373 77.46365 2.42187 73.27427 -0.30960 24.49035 96.95808 16.34128 12.28776 11.28971 15.26422 1.56521 -16.23251 -22.93382 -3.68091 70.76860 -8.00545 0.01443 -0.00436 19.50652 -14.79967 -58.40355 -30.34959 10.53633 15.46238 40.43300 6.91433 -33.14503 -31.39367 0.29991 -0.06712 14.47978 -25.50613 12.29031 
50.57465 93.32100 -40.14114 8.06531 9.74300 146.50298 -8.77484 25.19201 5.47577 -0.00076 0.00603 -0.01043 -17.63555 26.36745 15.92702 -3.41538 9.07293 2.47911 -144.14264 -66.43301 -119.86996 -21.78479 61.45797 -94.45540 15.48180 6.74026 -6.96870 15.77957 10.63681 1.43548 78.31508 1.82703 73.33177 -0.90807 24.99086 98.06345 16.41018 12.12394 10.96166 14.77674 1.73815 -14.24279 -23.35907 -2.77131 68.88541 -9.74141 0.01380 -0.00471 21.25475 -15.71306 -59.29963 -30.62689 8.57969 15.47019 43.75779 11.40935 -33.57209 -24.73521 -0.10730 0.16323 5.92422 -27.81867 9.20542 
50.01581 93.49736 -40.52351 8.05738 9.98183 147.35231 -8.78749 25.62767 5.53493 -0.00047 0.00599 -0.00980 -15.75888 25.43214 15.01307 -2.86968 9.09268 1.73633 -143.46837 -65.89914 -119.35622 -21.44009 61.43259 -94.69660 15.63767 7.12389 -6.76347 16.17454 10.39103 0.64989 79.12128 1.29330 73.47511 -1.50901 25.42292 99.12623 16.46781 11.97233 10.66355 14.40199 1.82246 -12.45143 -23.68300 -1.70849 67.02750 -11.62887 0.01245 -0.00448 23.01942 -16.44509 -60.01188 -30.90112 6.57582 15.46663 46.03276 14.29069 -34.40164 -28.52237 0.05798 -0.03822 8.67194 -28.88057 7.81009 
49.52106 93.68624 -40.83543 8.08176 10.15979 148.21007 -8.72383 26.00673 5.47988 -0.00028 0.00596 -0.00906 -14.10342 24.52341 14.27245 -2.37239 9.10462 1.17336 -142.83308 -65.29005 -118.91595 -21.05367 61.42485 -95.00120 15.78380 7.43487 -6.56530 16.53724 10.19406 0.00689 79.87831 0.80530 73.69232 -2.11285 25.79108 100.14860 16.50781 11.83927 10.37203 14.12618 1.80975 -10.84594 -23.87888 -0.55037 65.21011 -13.62154 0.01050 -0.00372 24.79977 -16.99380 -60.55829 -31.14859 4.66010 15.46414 47.64861 16.25478 -35.40002 -26.99721 -0.00974 -0.00845 6.45541 -28.94949 7.05471 
49.07078 93.88564 -41.06636 8.13030 10.27362 149.06464 -8.58994 26.32241 5.33427 -0.00006 0.00596 -0.00827 -12.65655 23.66352 13.67774 -1.91737 9.10565 0.76073 -142.24570 -64.61435 -118.53784 -20.61724 61.42750 -95.36745 15.91903 7.71604 -6.31515 16.86179 10.03728 -0.48922 80.59035 0.34183 73.97663 -2.72151 26.09657 101.13000 16.52844 11.72986 10.09931 13.92477 1.68879 -9.41364 -23.93238 0.64584 63.44646 -15.66952 0.00815 -0.00259 26.59362 -17.36574 -60.96207 -31.35975 2.93365 15.47525 48.75856 17.71719 -36.38501 -27.87152 0.01988 -0.00041 7.07677 -28.75029 6.75009 
48.65499 94.09303 -41.21668 8.19341 10.32451 149.90932 -8.39135 26.57337 5.11595 0.00020 0.00605 -0.00741 -11.40732 22.86683 13.20270 -1.50108 9.09340 0.47163 -141.71707 -63.87762 -118.21086 -20.12958 61.44087 -95.78880 16.04250 7.93414 -6.05937 17.13723 9.91234 -0.84071 81.26647 -0.11327 74.32575 -3.33582 26.34069 102.06447 16.53949 11.63918 9.82763 13.76971 1.45797 -8.14726 -23.84108 1.82711 61.74596 -17.72937 0.00563 -0.00130 28.39799 -17.56767 -61.24226 -31.51494 1.45663 15.50860 49.51017 18.88162 -37.27809 -27.28914 0.01233 -0.00125 6.54844 -28.36756 6.82666 
